<svg id="logo_bex" xmlns="http://www.w3.org/2000/svg" xmlns:xlink="http://www.w3.org/1999/xlink" width="120" height="51.649" viewBox="0 0 120 51.649">
  <defs>
    <clipPath id="clip-path">
      <rect id="長方形_2" data-name="長方形 2" width="120" height="51.649" fill="none"/>
    </clipPath>
  </defs>
  <g id="グループ_1" data-name="グループ 1" clip-path="url(#clip-path)">
    <path id="パス_198" data-name="パス 198" d="M36.676,38.716a18.4,18.4,0,0,0-1.841-4.651c-.825-1.687-1.721-3.345-2.645-4.976a17.977,17.977,0,0,0-7.241-6.572c2.769-1.17,5.7-2.856,6.794-5.82,1.076-2.942.248-6.336-1.086-9.043a8.113,8.113,0,0,0-1.02-1.664c-3.414-6.606-9.6-5.974-9.6-5.974H4.581A4.722,4.722,0,0,0,1.389,1.2,3.681,3.681,0,0,0,.007,4.179C.017,9.941.1,43.016,0,46.707a4.555,4.555,0,0,0,3.406,4.8s18.434.321,24.31,0,8-3.724,8-3.724c2.773-2.353.962-9.066.962-9.066M22.921,47.455c-4.584.22-10.763-.1-10.763-.1V4.749c0-.087.143-.574.317-.625.231-.063.515-.116.583-.126a1.713,1.713,0,0,1,1.765.813c.957,1.5,5.967,11.416,5.967,11.416s1.281,3.516-1.7,4.048c-1.124,0-2.441-.37-3.515.082A2.186,2.186,0,0,0,14.5,23.475C15.674,25.288,25.375,43.3,25.375,43.3s2.132,3.94-2.454,4.159" transform="translate(0 0)" fill="#00adec"/>
    <path id="パス_199" data-name="パス 199" d="M275.1,10.861s-.642-8.47,13.03-8.47H304.2s1.76.719.877,1.917c0,0-.159,1.446-4.478,1.446H292.2s-4.077.077-4.077,4.077V21.9a1.074,1.074,0,0,0,1.2,1.039H303.8s1.76.087,1.76,1.285l.076.8a1.744,1.744,0,0,1-1.836,1.754H289.645a1.849,1.849,0,0,0-1.519,1.757V46.692s-.079,2.234,2.956,2.391,10.8,0,10.8,0,2.8.077,3.2,1.528a4.012,4.012,0,0,1-.159,2.08s.479.631-3.361.631H285.089S275.1,52.6,275.1,43.809Z" transform="translate(-233.701 -2.031)" fill="#00adec"/>
    <path id="パス_200" data-name="パス 200" d="M527.593.869h-2.075a1.759,1.759,0,0,0-.962,1.361,4.411,4.411,0,0,0,.882,2.643C526.477,6.627,535.592,25.5,535.592,25.5s.637.642-.159,1.911L524.476,48.686s-1.121,2.32.642,3.036h8.555s2.319.159,3.758-2.959,6.554-12.4,6.554-12.4.8-.556,1.284.091l6.875,13.664s.392,1.953,3.759,2.135h8.313v-.3c0,.3,1.441-.4.641-2.39S553.9,27.175,553.9,27.175a3.788,3.788,0,0,1,.239-2.558L564.933,4.706S566.377.869,563.255.869H555.9A4.313,4.313,0,0,0,552.3,3.432c-1.273,2.558-10.867,19.347-10.867,19.347s-1.281,1.762-2.563-.795-9.75-19.753-9.75-19.753S528.393.869,527.593.869" transform="translate(-445.266 -0.738)" fill="#00adec"/>
  </g>
</svg>
