<svg xmlns="http://www.w3.org/2000/svg" xmlns:xlink="http://www.w3.org/1999/xlink" width="180" height="100" viewBox="0 0 180 100">
  <defs>
    <clipPath id="clip-path">
      <rect id="長方形_405" data-name="長方形 405" width="131.055" height="63.412" transform="translate(0 0)" fill="none"/>
    </clipPath>
  </defs>
  <g id="icon_seq" transform="translate(782 -376)">
    <rect id="長方形_1110" data-name="長方形 1110" width="180" height="100" transform="translate(-782 376)" fill="none"/>
    <g id="遺伝子解析" transform="translate(-758 394.171)">
      <g id="グループ_21" data-name="グループ 21">
        <g id="グループ_20" data-name="グループ 20" clip-path="url(#clip-path)">
          <line id="線_10" data-name="線 10" x2="131.055" transform="translate(0 48.5)" fill="none" stroke="#fff" stroke-miterlimit="10" stroke-width="1.291"/>
        </g>
      </g>
      <path id="パス_216" data-name="パス 216" d="M12.2,55.558l1.38,3.719H10.851ZM11.159,53.22l-3.9,10.021H9.4l.827-2.276h4.006l.875,2.276h2.2L13.3,53.22Z" fill="#fff"/>
      <g id="グループ_148" data-name="グループ 148" transform="translate(0.473 -0.171)">
        <g id="グループ_145" data-name="グループ 145">
          <g id="グループ_144" data-name="グループ 144" clip-path="url(#clip-path)">
            <line id="線_42" data-name="線 42" x2="131.055" transform="translate(0 48.5)" fill="none" stroke="#fff" stroke-miterlimit="10" stroke-width="1.291"/>
          </g>
        </g>
        <path id="パス_361" data-name="パス 361" d="M12.2,55.558l1.38,3.719H10.851ZM11.159,53.22l-3.9,10.021H9.4l.827-2.276h4.006l.875,2.276h2.2L13.3,53.22Z" fill="#fff"/>
        <g id="グループ_147" data-name="グループ 147">
          <g id="グループ_146" data-name="グループ 146" clip-path="url(#clip-path)">
            <path id="パス_362" data-name="パス 362" d="M28.647,59.557V57.869h4.361v3.992a5.483,5.483,0,0,1-1.842,1.083,6.707,6.707,0,0,1-2.444.468,5.481,5.481,0,0,1-2.741-.659,4.2,4.2,0,0,1-1.757-1.887,6.1,6.1,0,0,1-.588-2.669,5.764,5.764,0,0,1,.657-2.783,4.416,4.416,0,0,1,1.92-1.866,5.2,5.2,0,0,1,2.4-.5,4.783,4.783,0,0,1,2.915.783,3.531,3.531,0,0,1,1.35,2.163l-2.009.376a2.12,2.12,0,0,0-.8-1.165,2.4,2.4,0,0,0-1.459-.427,2.744,2.744,0,0,0-2.109.84,3.544,3.544,0,0,0-.783,2.5,3.922,3.922,0,0,0,.793,2.676,2.647,2.647,0,0,0,2.078.892,3.471,3.471,0,0,0,1.275-.25,4.352,4.352,0,0,0,1.1-.6V59.557Z" fill="#fff"/>
            <path id="パス_363" data-name="パス 363" d="M42.73,63.241V54.915H39.756V53.22H47.72v1.695H44.753v8.326Z" fill="#fff"/>
            <path id="パス_364" data-name="パス 364" d="M56.882,63.241V54.915H53.908V53.22h7.964v1.695H58.9v8.326Z" fill="#fff"/>
            <path id="パス_365" data-name="パス 365" d="M73.44,59.557V57.869H77.8v3.992a5.483,5.483,0,0,1-1.842,1.083,6.707,6.707,0,0,1-2.444.468,5.481,5.481,0,0,1-2.741-.659,4.2,4.2,0,0,1-1.757-1.887,6.1,6.1,0,0,1-.588-2.669,5.764,5.764,0,0,1,.657-2.783,4.417,4.417,0,0,1,1.92-1.866,5.2,5.2,0,0,1,2.4-.5,4.783,4.783,0,0,1,2.915.783,3.531,3.531,0,0,1,1.35,2.163l-2.009.376a2.12,2.12,0,0,0-.8-1.165,2.4,2.4,0,0,0-1.459-.427,2.744,2.744,0,0,0-2.109.84,3.544,3.544,0,0,0-.783,2.5,3.922,3.922,0,0,0,.793,2.676,2.647,2.647,0,0,0,2.078.892,3.471,3.471,0,0,0,1.275-.25,4.352,4.352,0,0,0,1.1-.6V59.557Z" fill="#fff"/>
            <path id="パス_366" data-name="パス 366" d="M94.305,63.241H92.1l-.875-2.277h-4l-.828,2.277H84.249l3.9-10.022h2.14Zm-3.726-3.965L89.2,55.557l-1.353,3.719Z" fill="#fff"/>
            <path id="パス_367" data-name="パス 367" d="M103.233,63.241V54.915h-2.974V53.22h7.964v1.695h-2.967v8.326Z" fill="#fff"/>
            <path id="パス_368" data-name="パス 368" d="M121.542,59.557l1.962.622a4.4,4.4,0,0,1-1.5,2.437,4.722,4.722,0,0,1-5.943-.567,5.219,5.219,0,0,1-1.286-3.729,5.482,5.482,0,0,1,1.292-3.887,4.435,4.435,0,0,1,3.4-1.384,4.165,4.165,0,0,1,2.987,1.087,3.952,3.952,0,0,1,1.026,1.846l-2,.478a2.071,2.071,0,0,0-2.113-1.681,2.282,2.282,0,0,0-1.808.8,3.926,3.926,0,0,0-.694,2.591,4.2,4.2,0,0,0,.684,2.707,2.219,2.219,0,0,0,1.777.807,2.026,2.026,0,0,0,1.388-.513,2.975,2.975,0,0,0,.834-1.613" fill="#fff"/>
            <path id="パス_369" data-name="パス 369" d="M4.981,48s5.346-72.5,15.846,0" fill="none" stroke="#fff" stroke-miterlimit="10" stroke-width="2"/>
            <path id="パス_370" data-name="パス 370" d="M67.423,47.441S76.442-12.5,82.385,48" fill="none" stroke="#fff" stroke-miterlimit="10" stroke-width="2"/>
            <path id="パス_371" data-name="パス 371" d="M82.342,47.569S90.442-24.5,97.385,48" fill="none" stroke="#fff" stroke-miterlimit="10" stroke-width="2"/>
            <path id="パス_372" data-name="パス 372" d="M97.866,48s7.538-98.5,15,0" fill="none" stroke="#fff" stroke-miterlimit="10" stroke-width="2"/>
            <path id="パス_373" data-name="パス 373" d="M113.327,47.5s7-49,14.5.5" fill="none" stroke="#fff" stroke-miterlimit="10" stroke-width="2"/>
            <path id="パス_374" data-name="パス 374" d="M37.462,48.066s7-49,14.5.5" fill="none" stroke="#fff" stroke-miterlimit="10" stroke-width="2"/>
            <path id="パス_375" data-name="パス 375" d="M52.806,48.236s8.1-72.069,15.043.431" fill="none" stroke="#fff" stroke-miterlimit="10" stroke-width="2"/>
            <path id="パス_376" data-name="パス 376" d="M4.981,47s8.654-5.5,15,0h.846s9.5-103.5,15,0h1.116s7.615-4.5,15,0c0,0,7.576-8.5,15.48,0h.4s8.5-4.5,15,0c0,0,6.616-11.5,14.558,0h1.026s7.993-4.5,14.455,0h.845s6.616-10.276,14.116,1.112" fill="none" stroke="#fff" stroke-miterlimit="10" stroke-width="2"/>
          </g>
        </g>
      </g>
    </g>
  </g>
</svg>
