<svg xmlns="http://www.w3.org/2000/svg" width="40.796" height="71.416" viewBox="0 0 40.796 71.416">
  <g id="icon_injector" transform="translate(-278.115 -798)">
    <path id="パス_451" data-name="パス 451" d="M298.817,830.289,303,798h-8.367Z" fill="#fff"/>
    <g id="グループ_176" data-name="グループ 176">
      <path id="パス_452" data-name="パス 452" d="M295.2,861.792l-13.831-23.958a4.166,4.166,0,0,1,3.608-6.249h27.663a4.166,4.166,0,0,1,3.609,6.249l-13.832,23.958A4.167,4.167,0,0,1,295.2,861.792Z" fill="#fff"/>
      <circle id="楕円形_19" data-name="楕円形 19" cx="8.292" cy="8.292" r="8.292" transform="translate(278.115 824.321)" fill="#fff"/>
      <circle id="楕円形_20" data-name="楕円形 20" cx="8.292" cy="8.292" r="8.292" transform="translate(301.532 824.321)" fill="#fff"/>
      <circle id="楕円形_21" data-name="楕円形 21" cx="4.849" cy="4.849" r="4.849" transform="translate(293.472 859.718)" fill="#fff"/>
      <g id="グループ_174" data-name="グループ 174">
        <path id="パス_453" data-name="パス 453" d="M290.914,853.33s-7.691-1.8-11.577,9.709" fill="none" stroke="#fff" stroke-linecap="round" stroke-miterlimit="10" stroke-width="1.576"/>
        <path id="パス_454" data-name="パス 454" d="M292.564,856.75s-7.691-1.8-11.577,9.709" fill="none" stroke="#fff" stroke-linecap="round" stroke-miterlimit="10" stroke-width="1.576"/>
      </g>
      <g id="グループ_175" data-name="グループ 175">
        <path id="パス_455" data-name="パス 455" d="M306.336,853.33s7.69-1.8,11.576,9.709" fill="none" stroke="#fff" stroke-linecap="round" stroke-miterlimit="10" stroke-width="1.576"/>
        <path id="パス_456" data-name="パス 456" d="M304.686,856.75s7.69-1.8,11.576,9.709" fill="none" stroke="#fff" stroke-linecap="round" stroke-miterlimit="10" stroke-width="1.576"/>
      </g>
    </g>
  </g>
</svg>
