<svg xmlns="http://www.w3.org/2000/svg" width="35" height="35" viewBox="0 0 35 35">
  <g id="icon_tel" transform="translate(559 125)">
    <rect id="長方形_1102" data-name="長方形 1102" width="35" height="35" transform="translate(-559 -125)" fill="none"/>
    <g id="電話の受話器のアイコン素材" transform="translate(-664.722 -801.441)">
      <path id="パス_430" data-name="パス 430" d="M115.51,681.546c-1.792,1.163-2.144,4.8-1.468,7.757a26.749,26.749,0,0,0,3.537,8.312,27.778,27.778,0,0,0,6.148,6.619c2.428,1.826,5.889,2.986,7.681,1.824a9.082,9.082,0,0,0,2.314-2.482l-.963-1.485-2.648-4.083c-.2-.3-1.431-.026-2.057.329a5.969,5.969,0,0,0-1.624,1.765c-.58.335-1.066,0-2.08-.466-1.247-.574-2.649-2.357-3.765-3.971-1.019-1.677-2.075-3.685-2.09-5.057-.013-1.117-.119-1.7.423-2.089a5.966,5.966,0,0,0,2.273-.763c.58-.427,1.336-1.441,1.139-1.744l-2.648-4.082-.963-1.485A9.079,9.079,0,0,0,115.51,681.546Z" fill="#fff" stroke="rgba(112,112,112,0)" stroke-width="1"/>
    </g>
  </g>
</svg>
