<svg xmlns="http://www.w3.org/2000/svg" xmlns:xlink="http://www.w3.org/1999/xlink" width="180" height="100" viewBox="0 0 180 100">
  <defs>
    <clipPath id="clip-path">
      <rect id="長方形_412" data-name="長方形 412" width="139.63" height="85.212" transform="translate(0 0)" fill="none"/>
    </clipPath>
  </defs>
  <g id="icon_geb" transform="translate(1182 -496)">
    <rect id="長方形_1110" data-name="長方形 1110" width="180" height="100" transform="translate(-1182 496)" fill="none"/>
    <g id="ゲノム編集" transform="translate(-1162 503)">
      <path id="パス_246" data-name="パス 246" d="M119.951,29.5h-30l5.359-20h30Z" fill="none" stroke="#fff" stroke-linejoin="round" stroke-width="3"/>
      <path id="パス_247" data-name="パス 247" d="M111.847,25.156H94.878l3.031-11.313h16.969Z" fill="none" stroke="#fff" stroke-linejoin="round" stroke-width="1.697"/>
      <line id="線_27" data-name="線 27" x2="1" transform="translate(117.643 15)" fill="none" stroke="#fff" stroke-linecap="round" stroke-linejoin="round" stroke-width="3"/>
      <line id="線_28" data-name="線 28" x2="1" transform="translate(116.63 19.5)" fill="none" stroke="#fff" stroke-linecap="round" stroke-linejoin="round" stroke-width="3"/>
      <line id="線_29" data-name="線 29" x2="1" transform="translate(115.63 24)" fill="none" stroke="#fff" stroke-linecap="round" stroke-linejoin="round" stroke-width="3"/>
      <g id="グループ_40" data-name="グループ 40">
        <g id="グループ_39" data-name="グループ 39" clip-path="url(#clip-path)">
          <path id="パス_248" data-name="パス 248" d="M95.31,9.5l13.32-8,29.287.348-13.32,8" fill="none" stroke="#fff" stroke-linecap="round" stroke-linejoin="round" stroke-width="3"/>
        </g>
      </g>
      <path id="パス_249" data-name="パス 249" d="M89.951,29.5v7.369H119.8l.151-7.369" fill="none" stroke="#fff" stroke-linecap="round" stroke-linejoin="round" stroke-width="3"/>
      <g id="グループ_42" data-name="グループ 42">
        <g id="グループ_41" data-name="グループ 41" clip-path="url(#clip-path)">
          <path id="パス_250" data-name="パス 250" d="M137.917,1.848,138.13,26l-17.5,10.5" fill="none" stroke="#fff" stroke-linecap="round" stroke-linejoin="round" stroke-width="3"/>
          <path id="パス_251" data-name="パス 251" d="M47.148,71.563,65.1,53.617a25.694,25.694,0,0,0-2.668-1.607,24.376,24.376,0,0,0-2.978-1.32L44.4,65.737a26.1,26.1,0,0,1-1.008-5.343l11-11c-1.035-.165-2.086-.276-3.156-.343a52.443,52.443,0,0,0-7.462.146q.094-.886.194-1.713c.162-1.334.32-2.739.454-4.195.883-.055,1.765-.1,2.648-.125a38.549,38.549,0,0,1,13.582,1.763A31.4,31.4,0,0,1,67.35,48.11,37.038,37.038,0,0,1,73.8,53.321l3,3-4.127,4.128-3-2.995q-.528-.53-1.054-1.01L49.931,75.13a27.086,27.086,0,0,1-2.783-3.567" fill="#fff"/>
          <path id="パス_252" data-name="パス 252" d="M36.218,37.969a32.775,32.775,0,0,0-1.464-11.551,25.245,25.245,0,0,0-2.594-5.443,31.221,31.221,0,0,0-4.4-5.44l-3-2.994,4.128-4.129,3,3a35.662,35.662,0,0,1,6.482,8.666A32.969,32.969,0,0,1,41.99,33.615,75.226,75.226,0,0,1,41.3,47.16c-.353,2.944-.639,5.775-.717,8.5a32.752,32.752,0,0,0,1.465,11.551,25.24,25.24,0,0,0,2.593,5.443,31.244,31.244,0,0,0,4.4,5.437l3,3L47.9,85.212l-3-3a35.7,35.7,0,0,1-6.484-8.665,32.979,32.979,0,0,1-3.616-13.542A75.333,75.333,0,0,1,35.5,46.463c.354-2.943.639-5.774.717-8.494" fill="#fff"/>
          <path id="パス_253" data-name="パス 253" d="M4.128,33.18l2.994,2.994c.353.353.7.69,1.054,1.011L26.867,18.494A27.353,27.353,0,0,1,29.65,22.06L11.7,40.011a27.259,27.259,0,0,0,2.67,1.6,24.5,24.5,0,0,0,2.979,1.321L32.4,27.886A26.257,26.257,0,0,1,33.4,33.23L22.4,44.236c1.035.166,2.088.273,3.159.341a52.642,52.642,0,0,0,7.466-.142c-.067.586-.13,1.156-.2,1.708-.162,1.335-.32,2.738-.455,4.194-.886.059-1.767.1-2.651.13A38.673,38.673,0,0,1,16.143,48.7a31,31,0,0,1-6.694-3.186A37.173,37.173,0,0,1,2.994,40.3L0,37.307Z" fill="#fff"/>
          <path id="パス_254" data-name="パス 254" d="M66.488,26.826a4.47,4.47,0,1,0-.683-2.106,4.478,4.478,0,0,0,.683,2.106m2.572-4.3a2.26,2.26,0,0,1,2.332-.048,2.264,2.264,0,0,1,.783.752,2.257,2.257,0,0,1,.049,2.332,2.266,2.266,0,0,1-.753.783,2.26,2.26,0,0,1-2.332.048,2.273,2.273,0,0,1-.783-.752,2.26,2.26,0,0,1-.048-2.332,2.273,2.273,0,0,1,.752-.783" fill="#fff"/>
          <path id="パス_255" data-name="パス 255" d="M56.705,19.467a4.471,4.471,0,1,0,.588-2.515,4.458,4.458,0,0,0-.588,2.515m3.254-2.193a2.262,2.262,0,0,1,2.333-.048,2.282,2.282,0,0,1,.783.752,2.26,2.26,0,0,1,.048,2.332,2.284,2.284,0,0,1-.752.784,2.268,2.268,0,0,1-2.333.048,2.288,2.288,0,0,1-.782-.752,2.262,2.262,0,0,1-.048-2.333,2.288,2.288,0,0,1,.751-.783" fill="#fff"/>
          <path id="パス_256" data-name="パス 256" d="M47.442,35.966,61.5,29.106l1.09,15.607a15.274,15.274,0,0,0,.753-18.8,15.275,15.275,0,0,0-15.9,10.051" fill="#fff"/>
          <path id="パス_257" data-name="パス 257" d="M90.13,30.185s-6.024-47.615-21.66-11.9" fill="none" stroke="#fff" stroke-linecap="round" stroke-miterlimit="10" stroke-width="3.393"/>
        </g>
      </g>
    </g>
  </g>
</svg>
