<!--<svg xmlns="http://www.w3.org/2000/svg" width="14.001" height="13" viewBox="0 0 14.001 13">-->
<!--<svg xmlns="http://www.w3.org/2000/svg" width="18" height="16.68" viewBox="0 0 12 12">-->
<svg xmlns="http://www.w3.org/2000/svg" width="18" height="18" viewBox="0 0 14 14">
  <g id="icon_check2-square" transform="translate(-1.5 -1.5)">
    <path id="パス_457" data-name="パス 457" d="M3,14.5A1.5,1.5,0,0,1,1.5,13V3A1.5,1.5,0,0,1,3,1.5h8a.5.5,0,0,1,0,1H3a.5.5,0,0,0-.5.5V13a.5.5,0,0,0,.5.5H13a.5.5,0,0,0,.5-.5V8a.5.5,0,0,1,1,0v5A1.5,1.5,0,0,1,13,14.5Z" fill="#2699fb"/>
    <path id="パス_458" data-name="パス 458" d="M8.354,10.354l7-7a.5.5,0,1,0-.708-.708L8,9.293,5.354,6.646a.5.5,0,0,0-.708.708l3,3a.5.5,0,0,0,.708,0Z" fill="#2699fb"/>
  </g>
</svg>
