<svg xmlns="http://www.w3.org/2000/svg" xmlns:xlink="http://www.w3.org/1999/xlink" width="180" height="100" viewBox="0 0 180 100">
  <defs>
    <clipPath id="clip-path">
      <rect id="長方形_1096" data-name="長方形 1096" width="133.685" height="81.587" transform="translate(0 0)" fill="none"/>
    </clipPath>
  </defs>
  <g id="icon_vivovitroep" transform="translate(982 -496)">
    <rect id="長方形_1110" data-name="長方形 1110" width="180" height="100" transform="translate(-982 496)" fill="none"/>
    <g id="グループ_168" data-name="グループ 168" transform="translate(-959 505)">
      <path id="パス_387" data-name="パス 387" d="M75.283,29.5h-30l5.359-20h30Z" fill="none" stroke="#fff" stroke-linejoin="round" stroke-width="3"/>
      <path id="パス_388" data-name="パス 388" d="M67.179,25.156H50.21l3.031-11.313H70.21Z" fill="none" stroke="#fff" stroke-linejoin="round" stroke-width="1.697"/>
      <line id="線_43" data-name="線 43" x2="1" transform="translate(72.976 15)" fill="none" stroke="#fff" stroke-linecap="round" stroke-linejoin="round" stroke-width="3"/>
      <line id="線_44" data-name="線 44" x2="1" transform="translate(71.962 19.5)" fill="none" stroke="#fff" stroke-linecap="round" stroke-linejoin="round" stroke-width="3"/>
      <line id="線_45" data-name="線 45" x2="1" transform="translate(70.962 24)" fill="none" stroke="#fff" stroke-linecap="round" stroke-linejoin="round" stroke-width="3"/>
      <g id="グループ_152" data-name="グループ 152">
        <g id="グループ_151" data-name="グループ 151" clip-path="url(#clip-path)">
          <path id="パス_389" data-name="パス 389" d="M50.642,9.5l13.32-8,29.287.348-13.32,8" fill="none" stroke="#fff" stroke-linecap="round" stroke-linejoin="round" stroke-width="3"/>
        </g>
      </g>
      <path id="パス_390" data-name="パス 390" d="M45.283,29.5v7.369H75.132l.151-7.369" fill="none" stroke="#fff" stroke-linecap="round" stroke-linejoin="round" stroke-width="3"/>
      <g id="グループ_154" data-name="グループ 154">
        <g id="グループ_153" data-name="グループ 153" clip-path="url(#clip-path)">
          <path id="パス_391" data-name="パス 391" d="M93.249,1.848,93.462,26l-17.5,10.5" fill="none" stroke="#fff" stroke-linecap="round" stroke-linejoin="round" stroke-width="3"/>
        </g>
      </g>
      <path id="パス_392" data-name="パス 392" d="M37.2,27.11l-5.592-1.6,7.2-9.754L27.619,12.546,21.046,27.8l4.574,1.312-5.79,12.52Z" fill="#fff"/>
      <path id="パス_393" data-name="パス 393" d="M105.94,28.456l5.592-1.6-7.2-9.754,11.183-3.207,6.573,15.251-4.574,1.312,5.79,12.52Z" fill="#fff"/>
      <g id="グループ_156" data-name="グループ 156">
        <g id="グループ_155" data-name="グループ 155" clip-path="url(#clip-path)">
          <path id="パス_394" data-name="パス 394" d="M115.68,74.342,107.665,60.46a4.166,4.166,0,0,1,3.609-6.249H127.3a4.166,4.166,0,0,1,3.608,6.249L122.9,74.342a4.167,4.167,0,0,1-7.217,0" fill="#fff"/>
          <path id="パス_395" data-name="パス 395" d="M116.316,54.955a6,6,0,1,1-6-6,6,6,0,0,1,6,6" fill="#fff"/>
          <path id="パス_396" data-name="パス 396" d="M133.261,54.955a6,6,0,1,1-6-6,6,6,0,0,1,6,6" fill="#fff"/>
          <path id="パス_397" data-name="パス 397" d="M122.446,78.078a3.509,3.509,0,1,1-3.509-3.509,3.509,3.509,0,0,1,3.509,3.509" fill="#fff"/>
          <path id="パス_398" data-name="パス 398" d="M113.578,69.947s-5.565-1.3-8.377,7.026" fill="none" stroke="#fff" stroke-linecap="round" stroke-miterlimit="10" stroke-width="1.14"/>
          <path id="パス_399" data-name="パス 399" d="M114.772,72.422s-5.565-1.3-8.377,7.026" fill="none" stroke="#fff" stroke-linecap="round" stroke-miterlimit="10" stroke-width="1.14"/>
          <path id="パス_400" data-name="パス 400" d="M124.737,69.947s5.565-1.3,8.377,7.026" fill="none" stroke="#fff" stroke-linecap="round" stroke-miterlimit="10" stroke-width="1.14"/>
          <path id="パス_401" data-name="パス 401" d="M123.543,72.422s5.565-1.3,8.377,7.026" fill="none" stroke="#fff" stroke-linecap="round" stroke-miterlimit="10" stroke-width="1.14"/>
          <path id="パス_402" data-name="パス 402" d="M25.5,60.085c0,2.761-3.358,5-7.5,5s-7.5-2.239-7.5-5,3.358-5,7.5-5,7.5,2.239,7.5,5" fill="#fff"/>
          <ellipse id="楕円形_17" data-name="楕円形 17" cx="7.5" cy="5" rx="7.5" ry="5" transform="translate(10.5 55.085)" fill="none" stroke="#fff" stroke-miterlimit="10" stroke-width="3"/>
          <path id="パス_403" data-name="パス 403" d="M22.371,70.034s-2.139-4.534,1.3-.786c0,0-1.84-4.523,1.433-.941,0,0-1.517-2.8.573-.377,0,0-3.466-6.494,1.29-.847,0,0-1.763-3.47.823-.542" fill="#fff"/>
          <path id="パス_404" data-name="パス 404" d="M22.294,69.916s3.314,3.762,1.237-.882c0,0,3.423,3.483,1.433-.942,0,0,1.97,2.5.573-.376,0,0,4.586,5.757,1.289-.848,0,0,2.486,2.994.824-.541" fill="#fff"/>
          <path id="パス_405" data-name="パス 405" d="M11.5,65.948s.276,4.616,7.3,5.093" fill="none" stroke="#fff" stroke-miterlimit="10" stroke-width="3"/>
          <path id="パス_406" data-name="パス 406" d="M9.372,67.527s.276,4.616,7.3,5.093" fill="none" stroke="#fff" stroke-miterlimit="10" stroke-width="3"/>
          <path id="パス_407" data-name="パス 407" d="M30.192,72.432s-2.139-4.534,1.3-.786c0,0-1.84-4.523,1.433-.941,0,0-1.517-2.8.573-.377,0,0-3.466-6.494,1.29-.847,0,0-1.763-3.47.823-.542" fill="#fff"/>
          <path id="パス_408" data-name="パス 408" d="M30.115,72.314s3.314,3.762,1.237-.882c0,0,3.423,3.483,1.433-.942,0,0,1.97,2.505.573-.376,0,0,4.586,5.757,1.289-.848,0,0,2.486,2.994.824-.541" fill="#fff"/>
          <path id="パス_409" data-name="パス 409" d="M32.432,58.439s-.276-4.616-7.3-5.093" fill="none" stroke="#fff" stroke-miterlimit="10" stroke-width="3"/>
          <path id="パス_410" data-name="パス 410" d="M34.558,56.86s-.276-4.616-7.295-5.093" fill="none" stroke="#fff" stroke-miterlimit="10" stroke-width="3"/>
          <path id="パス_411" data-name="パス 411" d="M28.25,79.335H17.75a16.75,16.75,0,0,1,0-33.5h10.5a16.75,16.75,0,1,1,0,33.5Z" fill="none" stroke="#fff" stroke-miterlimit="10" stroke-width="2"/>
          <path id="パス_412" data-name="パス 412" d="M27.474,76.86H18.525a14.276,14.276,0,0,1,0-28.551h8.949a14.276,14.276,0,1,1,0,28.551Z" fill="none" stroke="#fff" stroke-miterlimit="10" stroke-width="2"/>
        </g>
      </g>
    </g>
  </g>
</svg>
