<svg xmlns="http://www.w3.org/2000/svg" xmlns:xlink="http://www.w3.org/1999/xlink" width="65" height="65" viewBox="0 0 65 65">
  <defs>
    <clipPath id="clip-path">
      <rect id="長方形_459" data-name="長方形 459" width="56.586" height="35" fill="none"/>
    </clipPath>
  </defs>
  <g id="icon_lang" transform="translate(148 140)">
    <rect id="長方形_1107" data-name="長方形 1107" width="65" height="65" transform="translate(-148 -140)" fill="none"/>
    <g id="グループ_167" data-name="グループ 167" transform="translate(-143.574 -125)">
      <g id="グループ_123" data-name="グループ 123">
        <g id="グループ_122" data-name="グループ 122" clip-path="url(#clip-path)">
          <path id="パス_360" data-name="パス 360" d="M31.664,7.224c-.209-.29-.426-.574-.657-.853a17.5,17.5,0,0,0-27.015,0q-.345.418-.656.853A17.5,17.5,0,0,0,3.352,27.8q.32.444.673.866a17.5,17.5,0,0,0,26.993-.056c.236-.279.461-.568.668-.865a17.5,17.5,0,0,0-.022-20.524m.58,9.727H26.37a26.072,26.072,0,0,0-.855-6.236,19.221,19.221,0,0,0,3.95-1.849,14.656,14.656,0,0,1,2.779,8.085M18.046,2.864c2.555.355,4.815,3.152,6.1,7.128a24.27,24.27,0,0,1-6.1.9Zm-1.094,0v8.024a24.278,24.278,0,0,1-6.1-.9c1.289-3.976,3.549-6.774,6.1-7.128m0,9.116v4.97H9.722a24.943,24.943,0,0,1,.819-5.914,25.1,25.1,0,0,0,6.411.944m0,6.064v4.97a25.27,25.27,0,0,0-6.4.963,24.952,24.952,0,0,1-.825-5.933Zm0,6.062v8.024c-2.549-.353-4.807-3.141-6.1-7.1a24.155,24.155,0,0,1,6.1-.919m1.094,8.024V24.1a24.075,24.075,0,0,1,6.109.881c-1.288,3.986-3.55,6.791-6.109,7.146m0-9.12V18.045h7.23a24.974,24.974,0,0,1-.813,5.892,25.05,25.05,0,0,0-6.417-.925m0-6.061V11.98a25.117,25.117,0,0,0,6.412-.943,24.934,24.934,0,0,1,.818,5.913ZM28.8,8.011A18.188,18.188,0,0,1,25.206,9.67a13.975,13.975,0,0,0-3.925-6.441A14.733,14.733,0,0,1,28.8,8.011M13.716,3.229a13.972,13.972,0,0,0-3.924,6.44A18.175,18.175,0,0,1,6.2,8.011a14.746,14.746,0,0,1,7.514-4.782M5.535,8.865a19.29,19.29,0,0,0,3.948,1.849,26.014,26.014,0,0,0-.854,6.236H2.756A14.665,14.665,0,0,1,5.535,8.865m-2.779,9.18H8.629A25.963,25.963,0,0,0,9.49,24.3a19.329,19.329,0,0,0-3.939,1.848,14.647,14.647,0,0,1-2.8-8.107m3.473,8.971A18.348,18.348,0,0,1,9.8,25.355a13.912,13.912,0,0,0,3.92,6.414,14.733,14.733,0,0,1-7.5-4.754m15.05,4.755a13.944,13.944,0,0,0,3.935-6.463,18.181,18.181,0,0,1,3.6,1.66,14.767,14.767,0,0,1-7.54,4.8m8.212-5.662a19.2,19.2,0,0,0-3.965-1.85,26.143,26.143,0,0,0,.848-6.212h5.874a14.65,14.65,0,0,1-2.757,8.063" fill="#1a1311"/>
        </g>
      </g>
      <text id="EN" transform="translate(39.398 22.792)" fill="#1a1311" font-size="14" font-family="Arial-BoldMT, Arial" font-weight="700"><tspan x="0" y="0">EN</tspan></text>
    </g>
  </g>
</svg>
