<svg xmlns="http://www.w3.org/2000/svg" width="50" height="50" viewBox="0 0 50 50">
  <g id="icon_twitter" transform="translate(222 132)">
    <rect id="長方形_1108" data-name="長方形 1108" width="50" height="50" transform="translate(-222 -132)" fill="none"/>
    <g id="Logo_1_" transform="translate(-216 -124.497)">
      <path id="white_background" d="M34.14,8.966c.022.325.022.651.022.979,0,10.009-7.62,21.552-21.552,21.552v-.006A21.444,21.444,0,0,1,1,28.1a15.408,15.408,0,0,0,1.8.109,15.21,15.21,0,0,0,9.407-3.249A7.584,7.584,0,0,1,5.134,19.7a7.55,7.55,0,0,0,3.42-.13,7.575,7.575,0,0,1-6.076-7.425v-.1a7.527,7.527,0,0,0,3.438.948A7.584,7.584,0,0,1,3.571,2.879a21.5,21.5,0,0,0,15.611,7.913A7.582,7.582,0,0,1,32.09,3.884,15.2,15.2,0,0,0,36.9,2.045a7.6,7.6,0,0,1-3.33,4.189,15.064,15.064,0,0,0,4.35-1.192A15.388,15.388,0,0,1,34.14,8.966Z" transform="translate(0 0)"/>
    </g>
  </g>
</svg>
