<svg xmlns="http://www.w3.org/2000/svg" xmlns:xlink="http://www.w3.org/1999/xlink" width="180" height="100" viewBox="0 0 180 100">
  <defs>
    <clipPath id="clip-path">
      <rect id="長方形_402" data-name="長方形 402" width="76.799" height="76.8" fill="none"/>
    </clipPath>
  </defs>
  <g id="icon_oligo" transform="translate(1182 -376)">
    <rect id="長方形_1110" data-name="長方形 1110" width="180" height="100" transform="translate(-1182 376)" fill="none"/>
    <g id="オリゴ" transform="translate(-1130 388)">
      <g id="グループ_13" data-name="グループ 13" clip-path="url(#clip-path)">
        <path id="パス_204" data-name="パス 204" d="M29.651,63.15,11.7,45.2A25.694,25.694,0,0,1,14.372,43.6a24.375,24.375,0,0,1,2.978-1.32L32.4,57.324a26.1,26.1,0,0,0,1.008-5.343l-11-11c1.035-.165,2.086-.276,3.156-.343a52.444,52.444,0,0,1,7.462.146q-.094-.886-.194-1.712c-.162-1.335-.32-2.74-.454-4.195-.883-.055-1.765-.1-2.648-.125A38.525,38.525,0,0,0,16.143,36.51,31.372,31.372,0,0,0,9.45,39.7a37.126,37.126,0,0,0-6.455,5.211L0,47.9l4.128,4.128,3-2.995c.353-.353.7-.689,1.054-1.01L26.868,66.717a27.086,27.086,0,0,0,2.783-3.567" fill="#fff"/>
        <path id="パス_205" data-name="パス 205" d="M40.582,29.557a32.751,32.751,0,0,1,1.464-11.551,25.287,25.287,0,0,1,2.593-5.443,31.276,31.276,0,0,1,4.4-5.44l3-2.994L47.906,0l-3,3a35.662,35.662,0,0,0-6.482,8.666A32.969,32.969,0,0,0,34.81,25.2,75.226,75.226,0,0,0,35.5,38.748c.352,2.944.639,5.775.717,8.5a32.729,32.729,0,0,1-1.465,11.551,25.2,25.2,0,0,1-2.594,5.443,31.189,31.189,0,0,1-4.4,5.437l-3,3L28.9,76.8l3-3a35.668,35.668,0,0,0,6.483-8.665A32.965,32.965,0,0,0,41.992,51.6,75.333,75.333,0,0,0,41.3,38.051c-.355-2.943-.639-5.774-.717-8.494" fill="#fff"/>
        <path id="パス_206" data-name="パス 206" d="M72.671,24.767l-2.994,2.994c-.353.353-.7.69-1.054,1.011L49.932,10.082a27.279,27.279,0,0,0-2.783,3.565L65.1,31.6a27.064,27.064,0,0,1-2.67,1.6,24.346,24.346,0,0,1-2.979,1.321L44.4,19.473a26.267,26.267,0,0,0-1.007,5.345L54.4,35.824c-1.035.165-2.088.273-3.159.341a52.5,52.5,0,0,1-7.466-.143c.067.587.13,1.157.2,1.708.162,1.335.32,2.738.455,4.194.886.06,1.767.1,2.651.131a38.651,38.651,0,0,0,13.577-1.768A31,31,0,0,0,67.35,37.1a37.181,37.181,0,0,0,6.455-5.212L76.8,28.9Z" fill="#fff"/>
      </g>
    </g>
  </g>
</svg>
