<svg xmlns="http://www.w3.org/2000/svg" xmlns:xlink="http://www.w3.org/1999/xlink" width="180" height="100" viewBox="0 0 180 100">
  <defs>
    <clipPath id="clip-path">
      <rect id="長方形_448" data-name="長方形 448" width="143.854" height="83.022" transform="translate(0 0)" fill="none"/>
    </clipPath>
  </defs>
  <g id="icon_kits" transform="translate(390 -615)">
    <rect id="長方形_1110" data-name="長方形 1110" width="180" height="100" transform="translate(-390 615)" fill="none"/>
    <g id="キット" transform="translate(-372 624)">
      <g id="グループ_81" data-name="グループ 81" clip-path="url(#clip-path)">
        <path id="パス_343" data-name="パス 343" d="M143.168,42.428a7.341,7.341,0,0,0-1.064-1.645c-.553-.654-1.054-1.132-1.351-1.582a2.58,2.58,0,0,1-.333-.669,2.843,2.843,0,0,1-.123-.877h-2.052a5.9,5.9,0,0,0,.207,1.587,5.449,5.449,0,0,0,1.054,1.983c.306.38.612.7.887,1.006a5.567,5.567,0,0,1,.995,1.425,5.246,5.246,0,0,1,.414,2.235v8.236a13.442,13.442,0,0,1-.091,1.71,6.016,6.016,0,0,1-.262,1.185,2.612,2.612,0,0,1-.826,1.251,2.948,2.948,0,0,1-1.9.548H126.962a3.1,3.1,0,0,1-1.76-.447,2.187,2.187,0,0,1-.67-.712A4.451,4.451,0,0,1,124,56.048a12.613,12.613,0,0,1-.121-1.921V45.891a5.235,5.235,0,0,1,.426-2.26,4.913,4.913,0,0,1,.718-1.1,21.354,21.354,0,0,0,1.5-1.777,5.172,5.172,0,0,0,.656-1.341,5.743,5.743,0,0,0,.26-1.763h-2.052a2.644,2.644,0,0,1-.683,1.851c-.22.275-.5.57-.809.914a7.938,7.938,0,0,0-1.4,2.05,8.126,8.126,0,0,0-.666,3.421v8.236a16.45,16.45,0,0,0,.114,2.088,8.953,8.953,0,0,0,.4,1.756,5.067,5.067,0,0,0,1.6,2.369,4.736,4.736,0,0,0,3.023.952h11.763a4.856,4.856,0,0,0,2.753-.757,4.434,4.434,0,0,0,1.335-1.418A7.163,7.163,0,0,0,143.7,56.5a15.637,15.637,0,0,0,.156-2.376V45.891a8.1,8.1,0,0,0-.686-3.463" fill="#fff"/>
        <path id="パス_344" data-name="パス 344" d="M141.312,35.012c0-2.452-1.364-4.44-3.047-4.44H127.422c-1.683,0-3.047,1.988-3.047,4.44v1.255h16.937Z" fill="#fff"/>
        <path id="パス_345" data-name="パス 345" d="M125.936,54.127a9.605,9.605,0,0,0,.085,1.465,1.825,1.825,0,0,0,.175.62,1.46,1.46,0,0,0,.767.138h11.76a1.475,1.475,0,0,0,.77-.136.736.736,0,0,0,.064-.149,3.283,3.283,0,0,0,.127-.607,10.249,10.249,0,0,0,.066-1.33v-7.25H125.936Z" fill="#fff"/>
        <path id="パス_346" data-name="パス 346" d="M114.4,31.593V28.612a.716.716,0,0,0-.716-.716H102.5a.716.716,0,0,0-.716.716v2.981a5.034,5.034,0,0,0-3.845,4.889v18.91a5.037,5.037,0,0,0,5.037,5.036h10.235a5.036,5.036,0,0,0,5.036-5.036V51.26H103.284V38.247h14.964V36.482a5.034,5.034,0,0,0-3.845-4.889" fill="#fff"/>
        <path id="パス_347" data-name="パス 347" d="M102.232,26.467h11.723a.661.661,0,0,0,.661-.661V20.129a.661.661,0,0,0-.661-.661H102.232a.661.661,0,0,0-.661.661v5.677a.661.661,0,0,0,.661.661" fill="#fff"/>
        <path id="パス_348" data-name="パス 348" d="M107.24,42.4h-.013v4.7h11.021V42.4H107.24Z" fill="#fff"/>
        <rect id="長方形_446" data-name="長方形 446" width="10" height="36" transform="translate(82.059 42.022)" fill="#fff"/>
        <path id="パス_349" data-name="パス 349" d="M92.06,78.022a5,5,0,1,1-5-5,5,5,0,0,1,5,5" fill="#fff"/>
        <path id="パス_350" data-name="パス 350" d="M92.059,41.022h-10v-7h10Zm-8-5h-1v5h1Zm2,0h-1v5h1Zm2,0h-1v5h1Z" fill="#fff"/>
        <rect id="長方形_447" data-name="長方形 447" width="10" height="36" transform="translate(64.265 41.548)" fill="#fff"/>
        <path id="パス_351" data-name="パス 351" d="M74.265,77.547a5,5,0,1,1-5-5,5,5,0,0,1,5,5" fill="#fff"/>
        <path id="パス_352" data-name="パス 352" d="M74.265,40.548h-10v-7h10Zm-8-5h-1v5h1Zm2,0h-1v5h1Zm2,0h-1v5h1Z" fill="#fff"/>
        <path id="パス_353" data-name="パス 353" d="M60.707,21.417l-8.342-2.354,5.024-6.4a1.005,1.005,0,0,0-.305-1.5L37.133.126A1.015,1.015,0,0,0,36.646,0a.993.993,0,0,0-.79.386L30.721,6.925,25.586.386A1,1,0,0,0,24.794,0a1.01,1.01,0,0,0-.486.125L4.355,11.16a1.006,1.006,0,0,0-.3,1.5l5.024,6.4L.735,21.416A1.006,1.006,0,0,0,.52,23.265l9.566,5.29V41.35a1,1,0,0,0,.52.878L30.234,53.083a1,1,0,0,0,.973,0L50.835,42.23a1.008,1.008,0,0,0,.52-.881V28.555l9.565-5.29a1,1,0,0,0-.213-1.848M36.952,2.518,54.822,12.4l-5.091,6.483L31.862,9ZM6.618,12.4,24.489,2.518,29.579,9,11.708,18.884ZM4.075,22.74l7.343-2.072L28.75,30.251l-7.345,2.073Zm25.891,27.7-17.7-9.788V29l8.95,4.949,8.749-2.469Zm.755-20.828-17.649-9.76L30.721,10.1l17.649,9.76Zm18.453,11.04-17.7,9.788V31.476l8.747,2.469L49.174,29Zm-9.139-8.332-7.344-2.073,17.33-9.583,7.345,2.072Z" fill="#fff"/>
      </g>
    </g>
  </g>
</svg>
