<svg xmlns="http://www.w3.org/2000/svg" width="35" height="35" viewBox="0 0 35 35">
  <g id="icon_mail" transform="translate(511 125)">
    <rect id="長方形_1103" data-name="長方形 1103" width="35" height="35" transform="translate(-511 -125)" fill="none"/>
    <g id="メールの無料アイコンその13" transform="translate(-506 -121)">
      <path id="パス_354" data-name="パス 354" d="M24.855,3.495A4.648,4.648,0,0,0,20.354,0H4.646A4.649,4.649,0,0,0,.141,3.494,4.73,4.73,0,0,0,0,4.646V20.355A4.64,4.64,0,0,0,4.646,25H20.354A4.648,4.648,0,0,0,25,20.354V4.646A4.493,4.493,0,0,0,24.855,3.495ZM22.788,20.357a2.436,2.436,0,0,1-2.434,2.43H4.646a2.441,2.441,0,0,1-1.725-.714,2.414,2.414,0,0,1-.709-1.72V8.666l7.152,6.521a4.656,4.656,0,0,0,6.266,0l7.157-6.524Zm0-14.1-8.351,7.616a2.871,2.871,0,0,1-3.877,0L2.213,6.262V4.646A2.428,2.428,0,0,1,4.646,2.212H20.354a2.436,2.436,0,0,1,2.434,2.434V6.257Z" transform="translate(0)" fill="#fff"/>
    </g>
  </g>
</svg>
