<svg xmlns="http://www.w3.org/2000/svg" xmlns:xlink="http://www.w3.org/1999/xlink" width="180" height="100" viewBox="0 0 180 100">
  <defs>
    <clipPath id="clip-path">
      <rect id="長方形_407" data-name="長方形 407" width="114.474" height="92.259" transform="translate(0 0)" fill="none"/>
    </clipPath>
    <clipPath id="clip-path-4">
      <rect id="長方形_409" data-name="長方形 409" width="48.855" height="32.831" transform="translate(0 55.841)" fill="none"/>
    </clipPath>
    <clipPath id="clip-path-5">
      <path id="パス_240" data-name="パス 240" d="M0,88.672,9.724,61.341l39.131-5.5L39.131,83.173Z" fill="none"/>
    </clipPath>
  </defs>
  <g id="icon_ge" transform="translate(582 -381)">
    <rect id="長方形_1110" data-name="長方形 1110" width="180" height="100" transform="translate(-582 381)" fill="none"/>
    <g id="遺伝子工学" transform="translate(-549 385)">
      <g id="グループ_26" data-name="グループ 26">
        <g id="グループ_25" data-name="グループ 25" clip-path="url(#clip-path)">
          <line id="線_11" data-name="線 11" x2="60" transform="translate(0.506 25.016)" fill="none" stroke="#fff" stroke-miterlimit="10" stroke-width="3"/>
          <line id="線_12" data-name="線 12" x2="40" transform="translate(0.506 54.016)" fill="none" stroke="#fff" stroke-miterlimit="10" stroke-width="3"/>
        </g>
      </g>
      <line id="線_13" data-name="線 13" y1="28" transform="translate(6.506 25.516)" fill="none" stroke="#fff" stroke-miterlimit="10" stroke-width="3"/>
      <line id="線_14" data-name="線 14" y1="28" transform="translate(16.406 25.516)" fill="none" stroke="#fff" stroke-miterlimit="10" stroke-width="3"/>
      <line id="線_15" data-name="線 15" y1="28" transform="translate(26.306 25.516)" fill="none" stroke="#fff" stroke-miterlimit="10" stroke-width="3"/>
      <line id="線_16" data-name="線 16" y1="28" transform="translate(36.206 26.516)" fill="none" stroke="#fff" stroke-miterlimit="10" stroke-width="3"/>
      <line id="線_17" data-name="線 17" y1="14" transform="translate(46.106 25.516)" fill="none" stroke="#fff" stroke-miterlimit="10" stroke-width="3"/>
      <line id="線_18" data-name="線 18" y1="14" transform="translate(56.006 25.516)" fill="none" stroke="#fff" stroke-miterlimit="10" stroke-width="3"/>
      <g id="グループ_28" data-name="グループ 28">
        <g id="グループ_27" data-name="グループ 27" clip-path="url(#clip-path)">
          <line id="線_19" data-name="線 19" x1="60" transform="translate(49.775 66.2)" fill="none" stroke="#fff" stroke-miterlimit="10" stroke-width="3"/>
          <line id="線_20" data-name="線 20" x1="40" transform="translate(69.775 37.2)" fill="none" stroke="#fff" stroke-miterlimit="10" stroke-width="3"/>
        </g>
      </g>
      <line id="線_21" data-name="線 21" y2="28" transform="translate(103.775 37.7)" fill="none" stroke="#fff" stroke-miterlimit="10" stroke-width="3"/>
      <line id="線_22" data-name="線 22" y2="28" transform="translate(93.875 37.7)" fill="none" stroke="#fff" stroke-miterlimit="10" stroke-width="3"/>
      <line id="線_23" data-name="線 23" y2="28" transform="translate(83.975 37.7)" fill="none" stroke="#fff" stroke-miterlimit="10" stroke-width="3"/>
      <line id="線_24" data-name="線 24" y2="28" transform="translate(74.075 36.7)" fill="none" stroke="#fff" stroke-miterlimit="10" stroke-width="3"/>
      <line id="線_25" data-name="線 25" y2="14" transform="translate(64.175 51.7)" fill="none" stroke="#fff" stroke-miterlimit="10" stroke-width="3"/>
      <line id="線_26" data-name="線 26" y2="14" transform="translate(54.275 51.7)" fill="none" stroke="#fff" stroke-miterlimit="10" stroke-width="3"/>
      <g id="グループ_35" data-name="グループ 35">
        <g id="グループ_34" data-name="グループ 34" clip-path="url(#clip-path)">
          <path id="パス_231" data-name="パス 231" d="M101.008,17.319a11.648,11.648,0,0,0-3.024,1.244,10.608,10.608,0,0,0-3.2,2.716,4.315,4.315,0,0,0-.743,1.472,1.87,1.87,0,0,0,1.387,2.4A5.2,5.2,0,0,0,98,25.079a11.594,11.594,0,0,0,3.023-1.244,10.556,10.556,0,0,0,3.2-2.716,4.3,4.3,0,0,0,.744-1.472,1.872,1.872,0,0,0-1.387-2.4,5.209,5.209,0,0,0-2.573.073m2.683,2.008a4.005,4.005,0,0,1-1.027,1.6,10.33,10.33,0,0,1-2.294,1.763,9.306,9.306,0,0,1-3.438,1.242,3.048,3.048,0,0,1-1.14-.051.575.575,0,0,1-.47-.814,3.994,3.994,0,0,1,1.027-1.606A10.345,10.345,0,0,1,98.642,19.7a9.334,9.334,0,0,1,3.439-1.242,3.041,3.041,0,0,1,1.139.051.691.691,0,0,1,.447.285.7.7,0,0,1,.024.53" fill="#fff"/>
          <path id="パス_232" data-name="パス 232" d="M101.008,17.319a11.648,11.648,0,0,0-3.024,1.244,10.608,10.608,0,0,0-3.2,2.716,4.315,4.315,0,0,0-.743,1.472,1.87,1.87,0,0,0,1.387,2.4A5.2,5.2,0,0,0,98,25.079a11.594,11.594,0,0,0,3.023-1.244,10.556,10.556,0,0,0,3.2-2.716,4.3,4.3,0,0,0,.744-1.472,1.872,1.872,0,0,0-1.387-2.4A5.209,5.209,0,0,0,101.008,17.319Zm2.683,2.008a4.005,4.005,0,0,1-1.027,1.6,10.33,10.33,0,0,1-2.294,1.763,9.306,9.306,0,0,1-3.438,1.242,3.048,3.048,0,0,1-1.14-.051.575.575,0,0,1-.47-.814,3.994,3.994,0,0,1,1.027-1.606A10.345,10.345,0,0,1,98.642,19.7a9.334,9.334,0,0,1,3.439-1.242,3.041,3.041,0,0,1,1.139.051.691.691,0,0,1,.447.285A.7.7,0,0,1,103.691,19.327Z" fill="none" stroke="#fff" stroke-miterlimit="10" stroke-width="1"/>
          <path id="パス_233" data-name="パス 233" d="M113.781,16.9h0v0Z" fill="#fff"/>
          <path id="パス_234" data-name="パス 234" d="M113.781,16.9h0v0Z" fill="none" stroke="#fff" stroke-miterlimit="10" stroke-width="1"/>
          <path id="パス_235" data-name="パス 235" d="M69.668,17.169l2.578,1.066-.256,1.942a.657.657,0,0,0,.4.694l1.808.749-.258,1.935a.659.659,0,0,0,.4.7L76.151,25l-.366,2.765a.658.658,0,0,0,.982.656l6.292-3.633,2.557,4.429a4.917,4.917,0,0,0,3.035,2.2,13.635,13.635,0,0,0,6.7-.2h0a30.977,30.977,0,0,0,8.026-3.3h0a28.208,28.208,0,0,0,8.473-7.2,11.147,11.147,0,0,0,1.925-3.809,4.92,4.92,0,0,0-.386-3.727L107.534,3.028A4.918,4.918,0,0,0,104.5.829h0a13.628,13.628,0,0,0-6.7.2,30.7,30.7,0,0,0-8.028,3.3L69.59,15.991a.658.658,0,0,0,.078,1.178m42.2-.743a11.788,11.788,0,0,1-3.042,4.826,28.946,28.946,0,0,1-6.428,4.95,26.336,26.336,0,0,1-9.7,3.49,9.285,9.285,0,0,1-3.5-.176,2.968,2.968,0,0,1-1.867-1.286,2.968,2.968,0,0,1-.18-2.26,11.72,11.72,0,0,1,3.046-4.82A28.694,28.694,0,0,1,96.619,16.2a26.205,26.205,0,0,1,9.7-3.489,9.165,9.165,0,0,1,3.5.17,2.967,2.967,0,0,1,1.867,1.286,2.967,2.967,0,0,1,.18,2.26M85.858,25.688,84.44,23.231l4.354-2.514c-.4.452-.774.911-1.106,1.361a10.478,10.478,0,0,0-1.82,3.574Zm-11.78-6.254.322-2.443-1.509-.626,10.043-5.8,7.825-4.518a26.211,26.211,0,0,1,9.7-3.49,9.076,9.076,0,0,1,3.5.176,2.958,2.958,0,0,1,1.864,1.28l4.393,7.609-.036-.01a13.006,13.006,0,0,0-6.368.211,30.089,30.089,0,0,0-7.853,3.234l-12.18,7.033-1.139.658-4.549,2.626.213-1.62-2.277-.942.326-2.438Z" fill="#fff"/>
          <path id="パス_236" data-name="パス 236" d="M69.668,17.169l2.578,1.066-.256,1.942a.657.657,0,0,0,.4.694l1.808.749-.258,1.935a.659.659,0,0,0,.4.7L76.151,25l-.366,2.765a.658.658,0,0,0,.982.656l6.292-3.633,2.557,4.429a4.917,4.917,0,0,0,3.035,2.2,13.635,13.635,0,0,0,6.7-.2h0a30.977,30.977,0,0,0,8.026-3.3h0a28.208,28.208,0,0,0,8.473-7.2,11.147,11.147,0,0,0,1.925-3.809,4.92,4.92,0,0,0-.386-3.727L107.534,3.028A4.918,4.918,0,0,0,104.5.829h0a13.628,13.628,0,0,0-6.7.2,30.7,30.7,0,0,0-8.028,3.3L69.59,15.991a.658.658,0,0,0,.078,1.178Zm42.2-.743a11.788,11.788,0,0,1-3.042,4.826,28.946,28.946,0,0,1-6.428,4.95,26.336,26.336,0,0,1-9.7,3.49,9.285,9.285,0,0,1-3.5-.176,2.968,2.968,0,0,1-1.867-1.286,2.968,2.968,0,0,1-.18-2.26,11.72,11.72,0,0,1,3.046-4.82A28.694,28.694,0,0,1,96.619,16.2a26.205,26.205,0,0,1,9.7-3.489,9.165,9.165,0,0,1,3.5.17,2.967,2.967,0,0,1,1.867,1.286A2.967,2.967,0,0,1,111.865,16.426ZM85.858,25.688,84.44,23.231l4.354-2.514c-.4.452-.774.911-1.106,1.361a10.478,10.478,0,0,0-1.82,3.574Zm-11.78-6.254.322-2.443-1.509-.626,10.043-5.8,7.825-4.518a26.211,26.211,0,0,1,9.7-3.49,9.076,9.076,0,0,1,3.5.176,2.958,2.958,0,0,1,1.864,1.28l4.393,7.609-.036-.01a13.006,13.006,0,0,0-6.368.211,30.089,30.089,0,0,0-7.853,3.234l-12.18,7.033-1.139.658-4.549,2.626.213-1.62-2.277-.942.326-2.438Z" fill="none" stroke="#fff" stroke-miterlimit="10" stroke-width="1"/>
          <g id="グループ_33" data-name="グループ 33" style="isolation: isolate">
            <g id="グループ_32" data-name="グループ 32">
              <g id="グループ_31" data-name="グループ 31" clip-path="url(#clip-path-4)">
                <g id="グループ_30" data-name="グループ 30">
                  <g id="グループ_29" data-name="グループ 29" clip-path="url(#clip-path-5)">
                    <path id="パス_237" data-name="パス 237" d="M9.832,76.529a3.068,3.068,0,0,1-1.2-.05,1.354,1.354,0,0,1-.923-.723,1.416,1.416,0,0,1-.022-.984,3.006,3.006,0,0,1,.694-1.138,5.338,5.338,0,0,1,1.5-1.116,5.174,5.174,0,0,1,1.469-.493L11.492,72a2.935,2.935,0,0,1,1.2.056,1.313,1.313,0,0,1,.924.718,1.366,1.366,0,0,1,.023.984,3.011,3.011,0,0,1-.694,1.137,5.208,5.208,0,0,1-1.5,1.116,5.153,5.153,0,0,1-1.469.493c-.048.009-.1.016-.143.023m2.429-6.739c-.082.011-.163.024-.245.038a10.763,10.763,0,0,0-5.867,3.185,6.023,6.023,0,0,0-1.379,2.25,2.76,2.76,0,0,0,.052,1.95,2.644,2.644,0,0,0,1.822,1.426,6.017,6.017,0,0,0,2.418.1c.081-.011.163-.024.245-.038a10.4,10.4,0,0,0,2.9-.974,10.459,10.459,0,0,0,2.979-2.212,5.972,5.972,0,0,0,1.37-2.249,2.818,2.818,0,0,0-.044-1.951,2.654,2.654,0,0,0-1.829-1.425,6.036,6.036,0,0,0-2.418-.1" fill="#fff"/>
                    <path id="パス_238" data-name="パス 238" d="M13.445,84.678a2.913,2.913,0,0,1-1.2-.056,1.312,1.312,0,0,1-.925-.717,1.379,1.379,0,0,1-.02-.991A2.955,2.955,0,0,1,12,81.777a5.208,5.208,0,0,1,1.5-1.11,5.321,5.321,0,0,1,1.471-.5l.1-.015a2.969,2.969,0,0,1,1.232.056,1.31,1.31,0,0,1,.924.717,1.4,1.4,0,0,1,.031.983,3.13,3.13,0,0,1-.694,1.137,5.269,5.269,0,0,1-1.508,1.118,5.13,5.13,0,0,1-1.461.491c-.049.009-.1.016-.145.023m2.431-6.739c-.082.011-.163.024-.245.038a10.81,10.81,0,0,0-5.875,3.186,5.983,5.983,0,0,0-1.371,2.249,2.778,2.778,0,0,0,.044,1.951,2.658,2.658,0,0,0,1.83,1.425,6,6,0,0,0,2.416.1l.247-.039a10.32,10.32,0,0,0,2.888-.972,10.481,10.481,0,0,0,2.979-2.213,5.992,5.992,0,0,0,1.37-2.249,2.709,2.709,0,0,0-.044-1.95,2.658,2.658,0,0,0-1.821-1.427,6.036,6.036,0,0,0-2.418-.1" fill="#fff"/>
                    <path id="パス_239" data-name="パス 239" d="M37.44,57.445C20.631,64.2,18.669,75.214,18.669,75.214s3.821,2.227,10.7,1.261a36.817,36.817,0,0,0,14.09-5.458L23.482,72.785Z" fill="#fff"/>
                  </g>
                </g>
              </g>
            </g>
          </g>
        </g>
      </g>
    </g>
  </g>
</svg>
