<svg xmlns="http://www.w3.org/2000/svg" width="21" height="18.9" viewBox="0 0 21 21">
  <g id="icon_check2-square" transform="translate(0 5)">
    <path id="icon_quote" d="M15.6,15.6A1.4,1.4,0,0,0,17,14.2V10.781a1.4,1.4,0,0,0-1.4-1.4H13.657a12.721,12.721,0,0,1,.087-1.476,4.912,4.912,0,0,1,.434-1.389,2.58,2.58,0,0,1,.783-.956,1.854,1.854,0,0,1,1.215-.391V3a4.22,4.22,0,0,0-2.128.521A4.651,4.651,0,0,0,12.528,4.91a6.888,6.888,0,0,0-.868,2.041,10.8,10.8,0,0,0-.26,2.43V14.2a1.4,1.4,0,0,0,1.4,1.4Zm-8.4,0a1.4,1.4,0,0,0,1.4-1.4V10.781a1.4,1.4,0,0,0-1.4-1.4H5.257a12.721,12.721,0,0,1,.087-1.476,4.912,4.912,0,0,1,.434-1.389,2.58,2.58,0,0,1,.783-.956A1.854,1.854,0,0,1,7.775,5.17V3a4.22,4.22,0,0,0-2.128.521A4.651,4.651,0,0,0,4.128,4.91,6.888,6.888,0,0,0,3.26,6.951,10.8,10.8,0,0,0,3,9.381V14.2a1.4,1.4,0,0,0,1.4,1.4Z" transform="translate(-3 -3)" fill="#2699fb"/>
  </g>
</svg>
