<svg id="レイヤー_1" data-name="レイヤー 1" xmlns="http://www.w3.org/2000/svg" viewBox="0 0 40.58 71.42"><defs><style>.cls-1{fill:#fff;}.cls-2{fill:none;stroke:#fff;stroke-linecap:round;stroke-miterlimit:10;stroke-width:1.58px;}</style></defs><g id="icon_injector" data-name="icon injector"><path id="パス_451" data-name="パス 451" class="cls-1" d="M20.7,32.29,24.89,0H16.52Z"/><g id="グループ_176" data-name="グループ 176"><path id="パス_452" data-name="パス 452" class="cls-1" d="M17.09,63.79l-13.84-24a4.17,4.17,0,0,1,3.61-6.25H34.53a4.17,4.17,0,0,1,4.16,4.17,4.11,4.11,0,0,1-.56,2.08l-13.83,24a4.15,4.15,0,0,1-7.21,0Z"/><circle id="楕円形_19" data-name="楕円形 19" class="cls-1" cx="8.29" cy="34.61" r="8.29"/><circle id="楕円形_20" data-name="楕円形 20" class="cls-1" cx="31.71" cy="34.61" r="8.29"/><circle id="楕円形_21" data-name="楕円形 21" class="cls-1" cx="20.21" cy="66.57" r="4.85"/><g id="グループ_174" data-name="グループ 174"><path id="パス_453" data-name="パス 453" class="cls-2" d="M12.8,55.33S5.11,53.53,1.22,65"/><path id="パス_454" data-name="パス 454" class="cls-2" d="M14.45,58.75S6.76,57,2.87,68.46"/></g><g id="グループ_175" data-name="グループ 175"><path id="パス_455" data-name="パス 455" class="cls-2" d="M28.22,55.33S35.91,53.53,39.8,65"/><path id="パス_456" data-name="パス 456" class="cls-2" d="M26.57,58.75s7.69-1.8,11.58,9.71"/></g></g></g></svg>