<svg xmlns="http://www.w3.org/2000/svg" width="131.055" height="69.272" viewBox="0 0 131.055 69.272">
  <g id="icon_seq" transform="translate(-41.916 -796.894)">
    <line id="線_49" data-name="線 49" x2="131.055" transform="translate(41.916 851.254)" fill="none" stroke="#fff" stroke-miterlimit="10" stroke-width="1.291"/>
    <g id="グループ_172" data-name="グループ 172">
      <path id="パス_435" data-name="パス 435" d="M59.227,865.995h-2.2l-.875-2.276H52.145l-.827,2.276H49.171l3.9-10.022h2.139ZM55.5,862.03l-1.38-3.719-1.354,3.719Z" fill="#fff"/>
      <path id="パス_436" data-name="パス 436" d="M70.563,862.31v-1.688h4.361v3.992a5.5,5.5,0,0,1-1.842,1.084,6.715,6.715,0,0,1-2.444.468,5.486,5.486,0,0,1-2.742-.66,4.2,4.2,0,0,1-1.756-1.887,6.093,6.093,0,0,1-.588-2.669,5.774,5.774,0,0,1,.656-2.782,4.424,4.424,0,0,1,1.921-1.866,5.176,5.176,0,0,1,2.4-.5,4.788,4.788,0,0,1,2.916.782,3.535,3.535,0,0,1,1.35,2.164l-2.01.376a2.126,2.126,0,0,0-.8-1.166,2.414,2.414,0,0,0-1.46-.427,2.741,2.741,0,0,0-2.109.841,3.539,3.539,0,0,0-.782,2.495,3.921,3.921,0,0,0,.793,2.676,2.645,2.645,0,0,0,2.078.892,3.494,3.494,0,0,0,1.275-.249,4.384,4.384,0,0,0,1.1-.605V862.31Z" fill="#fff"/>
      <path id="パス_437" data-name="パス 437" d="M84.646,865.995v-8.326H81.672v-1.7h7.964v1.7H86.669v8.326Z" fill="#fff"/>
      <path id="パス_438" data-name="パス 438" d="M98.8,865.995v-8.326H95.824v-1.7h7.964v1.7h-2.967v8.326Z" fill="#fff"/>
      <path id="パス_439" data-name="パス 439" d="M115.355,862.31v-1.688h4.362v3.992a5.5,5.5,0,0,1-1.842,1.084,6.715,6.715,0,0,1-2.444.468,5.486,5.486,0,0,1-2.742-.66,4.2,4.2,0,0,1-1.756-1.887,6.093,6.093,0,0,1-.588-2.669,5.763,5.763,0,0,1,.656-2.782,4.419,4.419,0,0,1,1.921-1.866,5.176,5.176,0,0,1,2.4-.5,4.788,4.788,0,0,1,2.916.782,3.535,3.535,0,0,1,1.35,2.164l-2.01.376a2.126,2.126,0,0,0-.8-1.166,2.414,2.414,0,0,0-1.46-.427,2.741,2.741,0,0,0-2.109.841,3.539,3.539,0,0,0-.782,2.495,3.921,3.921,0,0,0,.793,2.676,2.645,2.645,0,0,0,2.078.892,3.494,3.494,0,0,0,1.275-.249,4.384,4.384,0,0,0,1.1-.605V862.31Z" fill="#fff"/>
      <path id="パス_440" data-name="パス 440" d="M136.22,865.995h-2.2l-.875-2.276h-4.006l-.827,2.276h-2.146l3.9-10.022h2.14Zm-3.725-3.965-1.381-3.719-1.354,3.719Z" fill="#fff"/>
      <path id="パス_441" data-name="パス 441" d="M145.149,865.995v-8.326h-2.973v-1.7h7.964v1.7h-2.967v8.326Z" fill="#fff"/>
      <path id="パス_442" data-name="パス 442" d="M163.458,862.31l1.961.622a4.389,4.389,0,0,1-1.5,2.437,4.72,4.72,0,0,1-5.944-.567,5.217,5.217,0,0,1-1.285-3.729,5.479,5.479,0,0,1,1.292-3.886,4.429,4.429,0,0,1,3.4-1.384,4.172,4.172,0,0,1,2.988,1.086,3.965,3.965,0,0,1,1.025,1.846l-2,.479a2.07,2.07,0,0,0-2.112-1.682,2.28,2.28,0,0,0-1.808.8,3.918,3.918,0,0,0-.694,2.591,4.209,4.209,0,0,0,.683,2.707,2.223,2.223,0,0,0,1.778.806,2.033,2.033,0,0,0,1.388-.512A2.985,2.985,0,0,0,163.458,862.31Z" fill="#fff"/>
    </g>
    <g id="グループ_173" data-name="グループ 173">
      <path id="パス_443" data-name="パス 443" d="M46.9,850.754s5.346-72.5,15.846,0" fill="none" stroke="#fff" stroke-miterlimit="10" stroke-width="2"/>
      <path id="パス_444" data-name="パス 444" d="M109.339,850.2s9.02-59.941,14.962.559" fill="none" stroke="#fff" stroke-miterlimit="10" stroke-width="2"/>
      <path id="パス_445" data-name="パス 445" d="M124.258,850.323s8.1-72.069,15.043.431" fill="none" stroke="#fff" stroke-miterlimit="10" stroke-width="2"/>
      <path id="パス_446" data-name="パス 446" d="M139.782,850.754s7.538-98.5,15,0" fill="none" stroke="#fff" stroke-miterlimit="10" stroke-width="2"/>
      <path id="パス_447" data-name="パス 447" d="M155.243,850.254s7-49,14.5.5" fill="none" stroke="#fff" stroke-miterlimit="10" stroke-width="2"/>
      <path id="パス_448" data-name="パス 448" d="M79.378,850.82s7-49,14.5.5" fill="none" stroke="#fff" stroke-miterlimit="10" stroke-width="2"/>
      <path id="パス_449" data-name="パス 449" d="M94.722,850.99s8.1-72.069,15.043.431" fill="none" stroke="#fff" stroke-miterlimit="10" stroke-width="2"/>
      <path id="パス_450" data-name="パス 450" d="M62.841,850.809s7.538-118.82,15,0" fill="none" stroke="#fff" stroke-miterlimit="10" stroke-width="2.197"/>
    </g>
  </g>
</svg>
